<?xml version="1.0" encoding="utf-8"?>
<!-- Generator: Adobe Illustrator 20.1.0, SVG Export Plug-In . SVG Version: 6.00 Build 0)  -->
<svg version="1.1" id="Layer_1" xmlns="http://www.w3.org/2000/svg" xmlns:xlink="http://www.w3.org/1999/xlink" x="0px" y="0px"
	 viewBox="0 0 864 864" style="enable-background:new 0 0 864 864;" xml:space="preserve">
<g>
	<path d="M670.2,376c2.1-71.4-1.9-136.7-3.8-159.6c-3.4-41.3-8.6-84.2-16.3-84.2c-7.7,0-37,7.7-73.1,50.7
		C528.9,153.7,432,152,432,152s-96.9,1.7-145,30.9c-36.1-43-65.3-50.7-73.1-50.7c-7.7,0-12.9,43-16.3,84.2
		c-1.9,22.9-5.9,88.3-3.8,159.6c-58,15.3-178.2,118.9-162.5,143.3c10.3,16.1,56.3-9.5,56.3-9.5s-20.8,37.2-8.4,49.6
		C91.7,572,131,535.3,131,535.3s0,10.3,0,27.1c0,16.8,11.6,44.3,45.1-9.5c10.1-16.1,20-36.9,28.2-58.5c2.8,16.4,6.2,31.9,10.4,46
		c30.5,102.7,119.7,130.8,151.8,138.9l0,0v14.1c0,0-30.6,16.8-26.5,23.8c4.1,7.1,24.1-6.7,24.1-6.7s-0.7,21.2,5.6,21.2
		c6.3,0,9.8-21.1,9.8-21.1s18.4,15.5,22.4,11.4c4-4-20.6-28.7-20.6-28.7l1.4-10.8c25.8,4.2,49.3,3,49.3,3s23.5,1.2,49.3-3l1.4,10.8
		c0,0-24.7,24.7-20.6,28.7c4,4,22.4-11.4,22.4-11.4s3.5,21.1,9.8,21.1c6.3,0,5.6-21.2,5.6-21.2s20,13.8,24.1,6.7
		c4.1-7.1-26.5-23.8-26.5-23.8v-14.1l0,0c32-8.1,121.2-36.2,151.8-138.9c4.2-14.1,7.6-29.7,10.4-46c8.3,21.6,18.2,42.4,28.2,58.5
		c33.5,53.7,45.1,26.2,45.1,9.5c0-16.8,0-27.1,0-27.1s39.3,36.7,51.8,24.3c12.5-12.5-8.4-49.6-8.4-49.6s46,25.5,56.3,9.5
		C848.4,494.9,728.2,391.3,670.2,376z M800.8,473.2c7.6,7.9,14,15.5,18.7,22.3c-3.5,1.2-7.1,1.8-10.9,1.8c-0.1,0-0.3,0-0.4,0
		L808,497l-0.1,0.2c-11.3-0.2-21.8-6-28.1-15.3C787.5,480.9,794.7,477.8,800.8,473.2z M793.9,466.2c-5.6,4-12.4,6.3-19.4,6.4
		l-0.1-0.2l-0.1,0.2c-0.1,0-0.3,0-0.4,0c-11.5,0-22.2-5.8-28.6-15.2c9.7-1.1,18.7-5.5,25.7-12.2
		C779.1,452.2,786.9,459.3,793.9,466.2z M740.2,497.3c-0.1,0-0.3,0-0.4,0l-0.1-0.2l-0.1,0.2c-11.3-0.2-21.8-6-28.1-15.3
		c11-1.5,21.1-7.2,28.2-15.8c7.2,8.8,17.7,14.6,29.1,15.9C762.4,491.5,751.6,497.3,740.2,497.3z M771.1,512.9c1.5,2.7,3,5.7,4.4,8.9
		c-0.4,0-0.7,0-1.1,0.1l-0.1-0.2l-0.1,0.2c-0.1,0-0.3,0-0.4,0c-11.5,0-22.2-5.8-28.6-15.2c6.7-0.8,13.1-3.1,18.7-6.7L771.1,512.9z
		 M706.1,472.6l-0.1-0.2l-0.1,0.2c-0.1,0-0.3,0-0.4,0c-11.5,0-22.2-5.8-28.6-15.2c11.4-1.3,21.8-7.1,29.1-15.9
		c7.1,8.6,17.1,14.3,28.2,15.8C727.9,466.7,717.4,472.4,706.1,472.6z M737.6,419.2c8.7,6.2,17.4,12.9,25.8,19.8
		c-6.3,5.7-14.6,9.1-23.3,9.1c-0.1,0-0.3,0-0.4,0l-0.1-0.2l-0.1,0.2c-11.3-0.2-21.8-6-28.1-15.3
		C721.5,431.4,730.7,426.6,737.6,419.2z M729.6,413.6c-6.2,6.1-14.6,9.7-23.5,9.9l-0.1-0.2l-0.1,0.2c-0.1,0-0.3,0-0.4,0
		c-11.5,0-22.2-5.8-28.6-15.2c9.5-1.1,18.4-5.3,25.3-11.8C711,401.4,720.2,407.2,729.6,413.6z M649.9,382.1c1.6-0.5,3.1-1,4.7-1.7
		c0.9-0.1,1.9-0.2,3-0.2c8.9,0,21.4,4.3,35.5,11.4c-6,4.7-13.4,7.3-21.2,7.3c-0.1,0-0.3,0-0.4,0l-0.1-0.2l-0.1,0.2
		c-9.6-0.2-18.6-4.4-24.9-11.3C647.2,384.9,648.5,383.1,649.9,382.1z M426.1,326.4c3.9-0.8,7.8-0.9,11.7,0
		c7.2,1.6,18.5,4.9,18.5,10.3c0,6.3-6.1,25.8-15.8,43.2c-1.7,3.1-5,5-8.5,5c-3.5,0-6.8-1.9-8.5-5c-9.7-17.4-15.8-36.9-15.8-43.2
		C407.7,331.3,419,328,426.1,326.4z M206.4,380.2c1,0,1.9,0.1,2.8,0.2c1.6,0.7,3.3,1.3,5,1.8c1.5,1.1,2.8,3.1,3.7,6.1
		c-6.4,6.7-15.4,10.6-24.9,10.6c-0.1,0-0.3,0-0.4,0l-0.1-0.2l-0.1,0.2c-7.7-0.1-15.1-2.9-20.9-7.6
		C185.4,384.4,197.6,380.2,206.4,380.2z M162.4,396.1c6.7,6.5,15.4,10.7,24.7,12c-6.3,9.3-16.8,15.1-28.1,15.3l-0.1-0.2l-0.1,0.2
		c-0.1,0-0.3,0-0.4,0c-9.1,0-17.7-3.6-24.1-9.8C143.9,407.1,153.4,401.1,162.4,396.1z M96.1,481.9c11-1.5,21.1-7.2,28.2-15.8
		c7.3,8.8,17.7,14.6,29.1,15.9c-6.4,9.4-17.1,15.2-28.6,15.2c-0.1,0-0.3,0-0.4,0l-0.1-0.2l-0.1,0.2
		C112.8,497,102.3,491.3,96.1,481.9z M118.7,506.5c-6.3,9.3-16.8,15.1-28.1,15.3l-0.1-0.2l-0.1,0.2c-0.1,0-0.3,0-0.4,0
		c-0.5,0-1.1,0-1.6-0.1c1.4-3.2,2.9-6.3,4.4-8.9l7.5-13.3C105.8,503.2,112.1,505.6,118.7,506.5z M129.8,457.5
		c11.4-1.3,21.8-7.1,29.1-15.9c7,8.6,17.1,14.3,28.2,15.8c-6.3,9.3-16.8,15.1-28.1,15.3l-0.1-0.2l-0.1,0.2c-0.1,0-0.3,0-0.4,0
		C146.9,472.7,136.2,466.9,129.8,457.5z M126.3,419.3c7.1,7.5,16.7,12.4,27,13.6c-6.4,9.4-17.1,15.2-28.6,15.2c-0.1,0-0.3,0-0.4,0
		l-0.1-0.2l-0.1,0.2c-8.7-0.2-16.9-3.6-23.1-9.4C109.2,431.9,117.7,425.4,126.3,419.3z M93.6,444.9c6.8,6.7,15.6,11.2,25.2,12.5
		c-6.3,9.3-16.8,15.1-28.1,15.3l-0.1-0.2l-0.1,0.2c-0.1,0-0.3,0-0.4,0c-7.3,0-14.2-2.3-20-6.4C77.2,459.2,85.2,452,93.6,444.9z
		 M63.2,473.2c6.3,4.8,13.8,7.9,21.7,8.8c-6.4,9.4-17.1,15.2-28.6,15.2c-0.1,0-0.3,0-0.4,0l-0.1-0.2l-0.1,0.2c-3.8-0.1-7.5-0.8-11-2
		C49.4,488.5,55.8,481,63.2,473.2z M38.1,517.6c-0.8-0.4-1.3-0.9-1.7-1.5c-1-1.5-0.6-5.6,3.1-12.6c3.4,1.4,7.1,2.4,10.8,2.9
		C47.2,511.2,43,515,38.1,517.6z M54.3,517.1c0.5-0.6,1-1.2,1.5-1.8c0.3,0.4,0.6,0.7,0.9,1.1C55.9,516.6,55.1,516.9,54.3,517.1z
		 M84.7,504.6c-3.4,1.9-10.2,5.3-17.8,8.3c-2-1.8-3.9-3.9-5.5-6.3c11.4-1.3,21.8-7.1,29.1-15.9c2.1,2.5,4.4,4.8,7,6.8L84.7,504.6z
		 M84.7,531.2c0.1,0,0.1,0,0.2,0c-0.1,0.2-0.3,0.4-0.4,0.6C84.6,531.6,84.6,531.4,84.7,531.2z M86.1,556.1c-1.8,0-2.4-0.6-2.6-0.8
		c-1.5-1.5-2.2-3.9-2.2-6.9c3.5-2.4,6.6-5.2,9.3-8.5c3.3,4,7.2,7.3,11.6,9.9C96,553.5,90.2,556.1,86.1,556.1z M126.9,530.9
		c-4.1,3.8-9.7,8.5-15.6,12.8c-6.1-2.6-11.5-6.9-15.3-12.6c11-1.5,21.1-7.2,28.2-15.8c2.8,3.5,6.2,6.4,9.8,8.9L126.9,530.9z
		 M143.7,578.4c-0.9,0-1.7-0.4-2.5-1.2c1,0.4,2.1,0.8,3.1,1.2C144.1,578.4,143.9,578.4,143.7,578.4z M155.3,570.8
		c-6.7-0.6-13-3.2-18.2-7.3c0-0.4,0-0.8,0-1.2v-8c8.5-2.5,16.2-7.5,21.9-14.4c3.3,4.1,7.4,7.5,11.9,10.1
		C164.5,560.1,159.3,566.6,155.3,570.8z M137,544.1V526c5,2.8,10.5,4.6,16.3,5.2C149.3,537.1,143.6,541.6,137,544.1z M175.8,541.7
		c-4.5-2.6-8.4-6.2-11.3-10.6c8-1.1,15.5-4.4,21.7-9.4C182.7,528.8,179.3,535.5,175.8,541.7z M159,521.8l-0.1-0.2l-0.1,0.2
		c-0.1,0-0.3,0-0.4,0c-11.5,0-22.2-5.8-28.6-15.2c11.4-1.3,21.8-7.1,29.1-15.9c7,8.6,17.1,14.3,28.2,15.8
		C180.8,515.8,170.3,521.6,159,521.8z M196.8,497c-1.2,0.1-2.5,0.2-3.7,0.2c-0.1,0-0.3,0-0.4,0l-0.1-0.2l-0.1,0.2
		c-11.3-0.2-21.8-6-28.1-15.3c11-1.5,21.1-7.2,28.2-15.8c3.3,4.1,7.4,7.5,11.9,10.1C202.1,483.2,199.5,490.2,196.8,497z
		 M207.6,466.8c-3.6-2.5-6.9-5.6-9.4-9.3c4.6-0.5,9-1.8,13.2-3.7C210.2,458.1,208.9,462.4,207.6,466.8z M214.8,440.4
		c-6,4.9-13.7,7.7-21.6,7.7c-0.1,0-0.3,0-0.4,0l-0.1-0.2l-0.1,0.2c-11.3-0.2-21.8-6-28.1-15.3c11-1.5,21.1-7.2,28.2-15.8
		c6.1,7.5,14.6,12.7,24,15C216,434.7,215.4,437.5,214.8,440.4z M218.2,422.4c-8.1-2.1-15.2-7.1-20-14.1c7.9-0.9,15.3-4,21.5-8.7
		C220,405.6,219.6,413.2,218.2,422.4z M235.4,326.4c0-44.4,36-80.4,80.4-80.4s80.4,36,80.4,80.4c0,44.4-36,80.4-80.4,80.4
		S235.4,370.8,235.4,326.4z M320.1,531c0-2.1,1.7-3.9,3.9-3.9c2.1,0,3.9,1.7,3.9,3.9c0,8.5,9.1,15.5,20.2,15.5s20.2-6.9,20.2-15.5
		c0-2.1,1.7-3.9,3.9-3.9c2.1,0,3.9,1.7,3.9,3.9c0,12.8-12.5,23.2-27.9,23.2C332.6,554.2,320.1,543.8,320.1,531z M390,604.9
		c-15.4,0-27.9-10.4-27.9-23.2c0-2.1,1.7-3.9,3.9-3.9c2.1,0,3.9,1.7,3.9,3.9c0,8.5,9.1,15.5,20.2,15.5s20.2-6.9,20.2-15.5
		c0-2.1,1.7-3.9,3.9-3.9c2.1,0,3.9,1.7,3.9,3.9C417.9,594.5,405.4,604.9,390,604.9z M432,554.2c-15.4,0-27.9-10.4-27.9-23.2
		c0-2.1,1.7-3.9,3.9-3.9c2.1,0,3.9,1.7,3.9,3.9c0,8.5,9.1,15.5,20.2,15.5c11.1,0,20.2-6.9,20.2-15.5c0-2.1,1.7-3.9,3.9-3.9
		c2.1,0,3.9,1.7,3.9,3.9C459.9,543.8,447.4,554.2,432,554.2z M474,604.9c-15.4,0-27.9-10.4-27.9-23.2c0-2.1,1.7-3.9,3.9-3.9
		c2.1,0,3.9,1.7,3.9,3.9c0,8.5,9.1,15.5,20.2,15.5s20.2-6.9,20.2-15.5c0-2.1,1.7-3.9,3.9-3.9c2.1,0,3.9,1.7,3.9,3.9
		C501.9,594.5,489.4,604.9,474,604.9z M516,554.2c-15.4,0-27.9-10.4-27.9-23.2c0-2.1,1.7-3.9,3.9-3.9s3.9,1.7,3.9,3.9
		c0,8.5,9.1,15.5,20.2,15.5s20.2-6.9,20.2-15.5c0-2.1,1.7-3.9,3.9-3.9s3.9,1.7,3.9,3.9C543.9,543.8,531.4,554.2,516,554.2z
		 M548.2,406.8c-44.4,0-80.4-36-80.4-80.4c0-44.4,36-80.4,80.4-80.4s80.4,36,80.4,80.4C628.6,370.8,592.6,406.8,548.2,406.8z
		 M644.3,399c6.2,4.9,13.6,8.1,21.5,9.2c-4.7,7.1-11.9,12.1-20,14.2C644.4,412.8,644,405,644.3,399z M649,439.5
		c-0.6-2.6-1.1-5.1-1.6-7.6c9.3-2.3,17.7-7.5,23.8-15c7.3,8.8,17.7,14.6,29.1,15.9c-6.4,9.4-17.1,15.2-28.6,15.2c-0.1,0-0.3,0-0.4,0
		l-0.1-0.2l-0.1,0.2C662.9,447.9,655.1,444.8,649,439.5z M652.5,453.3c4.2,2,8.6,3.4,13.3,4.1c-2.5,3.7-5.7,6.9-9.4,9.4
		C655,462.2,653.7,457.7,652.5,453.3z M671.4,497.2l-0.1-0.2l-0.1,0.2c-1.4,0-2.7-0.1-4-0.3c-2.7-6.8-5.3-13.8-7.6-20.7
		c4.5-2.6,8.5-6,11.8-10.1c7.3,8.8,17.7,14.6,29.1,15.9c-6.4,9.4-17.1,15.2-28.6,15.2C671.7,497.3,671.5,497.2,671.4,497.2z
		 M678,521.9c6.4,5.1,14.2,8.4,22.4,9.3c-3.1,4.6-7.2,8.3-11.9,10.9C684.9,535.9,681.4,529.1,678,521.9z M720.3,578.4
		c-0.2,0-0.5,0-0.8-0.1c1.1-0.4,2.2-0.8,3.3-1.3C722.1,577.9,721.2,578.4,720.3,578.4z M727,562.3c0,0.4,0,0.7,0,1.1
		c-5.2,4.1-11.5,6.7-18.3,7.4c-4-4.2-9-10.6-15.2-20.4c4.8-2.7,9-6.2,12.5-10.5c5.5,6.7,12.8,11.6,21,14.2V562.3z M727,543.8
		c-6.2-2.6-11.6-7-15.5-12.7c5.5-0.8,10.7-2.5,15.5-5.2L727,543.8z M706.1,521.8l-0.1-0.2l-0.1,0.2c-0.1,0-0.3,0-0.4,0
		c-11.5,0-22.2-5.8-28.6-15.2c11.4-1.3,21.8-7.1,29.1-15.9c7.1,8.6,17.1,14.3,28.2,15.8C727.9,515.8,717.4,521.6,706.1,521.8z
		 M737.1,530.9l-7.2-6.8c3.6-2.4,7-5.4,9.8-8.8c7.2,8.8,17.7,14.6,29.1,15.9c-3.9,5.8-9.4,10.1-15.7,12.7
		C747,539.5,741.3,534.7,737.1,530.9z M782.8,547.7c0,3.3-0.6,5.9-2.2,7.5c-0.2,0.2-0.8,0.8-2.6,0.8c-4,0-9.6-2.4-15.5-6
		c4.5-2.6,8.6-6.1,12-10.2C776.8,542.9,779.6,545.5,782.8,547.7z M797,512.9c-7.5-3-14.3-6.3-17.7-8.2l-12.3-6.8
		c2.7-2.1,5.2-4.4,7.3-7.1c7,8.6,17.1,14.3,28.2,15.8C800.9,508.9,799.1,511,797,512.9z M807.1,516.4c0.3-0.4,0.6-0.7,0.9-1.1
		c0.5,0.6,1,1.2,1.5,1.7C808.7,516.8,807.9,516.6,807.1,516.4z M827.6,516.1c-0.4,0.6-1,1.1-1.8,1.5c-4.8-2.6-9-6.4-12.2-11
		c3.8-0.4,7.5-1.4,11-2.8C828.2,510.7,828.6,514.6,827.6,516.1z"/>
	<path d="M329.3,289.6c-29,0-52.5,23.5-52.5,52.5c0,29,23.5,52.5,52.5,52.5s52.5-23.5,52.5-52.5
		C381.8,313.1,358.3,289.6,329.3,289.6z M308.5,330.8c-6.8,0-12.4-5.5-12.4-12.4c0-6.8,5.5-12.4,12.4-12.4c6.8,0,12.4,5.5,12.4,12.4
		C320.8,325.3,315.3,330.8,308.5,330.8z"/>
	<path d="M534.7,289.6c-29,0-52.5,23.5-52.5,52.5c0,29,23.5,52.5,52.5,52.5c29,0,52.5-23.5,52.5-52.5
		C587.1,313.1,563.7,289.6,534.7,289.6z M511.7,330.8c-6.8,0-12.4-5.5-12.4-12.4c0-6.8,5.5-12.4,12.4-12.4c6.8,0,12.4,5.5,12.4,12.4
		C524,325.3,518.5,330.8,511.7,330.8z"/>
</g>
</svg>
